HIERARCHY
ROOT Hips
{
	OFFSET 0.00000 0.00000 0.00000
	CHANNELS 6 Xposition Yposition Zposition Zrotation Yrotation Xrotation 
	JOINT LHipJoint
	{
		OFFSET 0 0 0
		CHANNELS 3 Zrotation Yrotation Xrotation
		JOINT LeftHip
		{
			OFFSET 1.74857 -1.85566 0.69197
			CHANNELS 3 Zrotation Yrotation Xrotation
			JOINT LeftKnee
			{
				OFFSET 2.40003 -6.59403 0.00000
				CHANNELS 3 Zrotation Yrotation Xrotation
				JOINT LeftAnkle
				{
					OFFSET 2.82169 -7.75254 0.00000
					CHANNELS 3 Zrotation Yrotation Xrotation
					JOINT LeftToe
					{
						OFFSET 0.16466 -0.45240 2.26890
						CHANNELS 3 Zrotation Yrotation Xrotation
						End Site
						{
							OFFSET 0.00000 -0.00000 1.16486
						}
					}
				}
			}
		}
	}
	JOINT RHipJoint
	{
		OFFSET 0 0 0
		CHANNELS 3 Zrotation Yrotation Xrotation
		JOINT RightHip
		{
			OFFSET -1.64169 -1.85566 0.69197
			CHANNELS 3 Zrotation Yrotation Xrotation
			JOINT RightKnee
			{
				OFFSET -2.41814 -6.64379 0.00000
				CHANNELS 3 Zrotation Yrotation Xrotation
				JOINT RightAnkle
				{
					OFFSET -2.80588 -7.70911 0.00000
					CHANNELS 3 Zrotation Yrotation Xrotation
					JOINT RightToe
					{
						OFFSET -0.19098 -0.52472 2.25401
						CHANNELS 3 Zrotation Yrotation Xrotation
						End Site
						{
							OFFSET -0.00000 -0.00000 1.16333
						}
					}
				}
			}
		}
	}
	JOINT lowerback
	{
		OFFSET 0 0 0
		CHANNELS 3 Zrotation Yrotation Xrotation
		JOINT Chest
		{
			OFFSET -0.02828 2.14690 -0.11061
			CHANNELS 3 Zrotation Yrotation Xrotation
			JOINT Chest2
			{
				OFFSET -0.00167 2.15299 0.00759
				CHANNELS 3 Zrotation Yrotation Xrotation
				JOINT lowerneck
				{
					OFFSET 0 0 0
					CHANNELS 3 Zrotation Yrotation Xrotation
					JOINT Neck
					{
						OFFSET -0.09296 1.90118 0.07197
						CHANNELS 3 Zrotation Yrotation Xrotation
						JOINT Head
						{
							OFFSET 0.08490 1.89526 -0.24604
							CHANNELS 3 Zrotation Yrotation Xrotation
							End Site
							{
								OFFSET 0.03186 1.92109 -0.09483
							}
						}
					}
				}
				JOINT LeftCollar
				{
					OFFSET 0 0 0
					CHANNELS 3 Zrotation Yrotation Xrotation
					JOINT LeftShoulder
					{
						OFFSET 3.21569 1.44644 -0.03720
CHANNELS 3 Zrotation Xrotation Yrotation
						JOINT LeftElbow
						{
OFFSET 0 -5.476510 -0.000000
CHANNELS 3 Zrotation Xrotation Yrotation
							JOINT LeftWrist
							{
OFFSET 0 -3.090580 -0.000000
CHANNELS 3 Zrotation Xrotation Yrotation
								JOINT lhand
								{
									OFFSET 0 0 0
CHANNELS 3 Zrotation Xrotation Yrotation
									JOINT LFingers
									{
OFFSET 0 -0.771610 -0.000000
CHANNELS 3 Zrotation Xrotation Yrotation
										End Site
										{
OFFSET 0 -0.622090 -0.000000
										}
									}
								}
								JOINT LThumb
								{
OFFSET 0 0.000000 0.000000
CHANNELS 3 Zrotation Xrotation Yrotation
									End Site
									{
OFFSET 0 -0.631590 0.631590
									}
								}
							}
						}
					}
				}
				JOINT RightCollar
				{
					OFFSET 0 0 0
					CHANNELS 3 Zrotation Yrotation Xrotation
					JOINT RightShoulder
					{
						OFFSET -3.38693 1.28904 -0.07093
CHANNELS 3 Zrotation Xrotation Yrotation
						JOINT RightElbow
						{
OFFSET 0 -5.141820 -0.000000
CHANNELS 3 Zrotation Xrotation Yrotation
							JOINT RightWrist
							{
OFFSET 0 -3.355650 -0.000000
CHANNELS 3 Zrotation Xrotation Yrotation
								JOINT rhand
								{
									OFFSET 0 0 0
CHANNELS 3 Zrotation Xrotation Yrotation
									JOINT RFingers
									{
OFFSET 0 -0.801040 -0.000000
CHANNELS 3 Zrotation Xrotation Yrotation
										End Site
										{
OFFSET 0 -0.645820 -0.000000
										}
									}
								}
								JOINT RThumb
								{
OFFSET 0 0.000000 0.000000
CHANNELS 3 Zrotation Xrotation Yrotation
									End Site
									{
OFFSET 0 -0.655680 0.655680
									}
								}
							}
						}
					}
				}
			}
		}
	}
}
MOTION
Frames: 6
Frame Time: 0.008333333333333333
-0.029000 18.147500 -0.156000 1.293300 -2.705200 0.897100 0.000000 0.000000 0.000000 -19.872600 -4.522400 0.116800 0.561700 4.800200 13.339700 0.248600 11.488000 -19.446800 0.761100 -5.571500 -15.546100 0.000000 0.000000 0.000000 18.085100 4.668800 -2.435100 -0.834900 -5.829100 16.289300 0.134700 -14.033500 -18.321400 -0.568300 4.828000 -13.418700 -1.624800 1.426400 3.640000 -1.146700 1.852500 2.412900 -0.324100 0.915800 0.421900 -6.968000 -10.391500 -0.033400 4.754300 -13.789200 -6.250000 2.708100 -6.836300 -1.128100 -0.000000 -0.000000 0.000000 13.984000 14.992300 -48.416800 81.475400 -59.723600 52.624400 -12.020900 -8.612000 -35.676400 0.000000 0.000000 0.000000 -7.125000 0.000000 0.000000 -50.343300 58.316300 19.511600 -0.000000 -0.000000 0.000000 -11.319200 15.456800 47.355000 -83.015400 -59.814900 -53.955000 36.565900 10.579300 1.278000 0.000000 0.000000 0.000000 7.125000 0.000000 -0.000000 42.809800 26.311700 27.863100
-0.024347 18.148207 -0.139955 1.187397 -3.168813 0.980079 0.000000 0.000000 0.000000 -19.794177 -4.219424 0.062416 0.558228 4.785705 13.298262 0.271881 11.527248 -19.750935 0.749491 -5.529815 -15.426125 0.000000 0.000000 0.000000 18.164492 4.979320 -2.471028 -0.841581 -5.851691 16.354715 0.101434 -13.830293 -18.432428 -0.499086 4.528963 -12.569928 -1.599703 1.589112 3.906057 -1.115687 2.062309 2.393157 -0.321738 1.021500 0.251591 -7.009350 -10.451832 -0.110816 4.739659 -13.866673 -6.132101 2.697636 -6.874929 -1.070486 0.000000 0.000000 0.000000 14.035524 14.528738 -48.539866 80.789415 -59.677038 52.032039 -12.061849 -8.155711 -35.525112 0.000000 0.000000 0.000000 -7.125000 0.000000 0.000000 -50.207132 58.202762 19.296507 0.000000 0.000000 0.000000 -11.029072 15.559804 47.076169 -83.275228 -59.828410 -54.179591 36.037279 11.041443 1.026356 0.000000 0.000000 0.000000 7.125000 0.000000 0.000000 42.536012 26.255103 27.588235
-0.009604 18.154724 -0.103021 1.216362 -2.545364 1.108717 0.000000 0.000000 0.000000 -19.881302 -4.736277 0.262705 0.541287 4.713854 13.094123 0.237777 11.637493 -19.503773 0.768616 -5.598251 -15.623062 0.000000 0.000000 0.000000 18.118153 4.485368 -2.506348 -0.836893 -5.835821 16.308901 0.075566 -13.790500 -18.695244 -0.368282 3.898019 -10.789875 -1.409159 1.384366 3.806167 -1.129768 1.796977 2.301165 -0.431629 0.891426 0.220716 -7.029659 -10.623093 0.266007 4.948459 -14.113834 -6.140822 2.788235 -7.005582 -1.105778 0.000000 0.000000 0.000000 13.945680 14.994362 -48.014281 81.781736 -59.743262 52.888933 -13.032309 -8.314938 -35.886023 0.000000 0.000000 0.000000 -7.125000 0.000000 0.000000 -51.465695 58.227611 19.996797 0.000000 0.000000 0.000000 -10.668204 15.727132 46.656605 -83.569688 -59.843224 -54.434136 36.835518 10.855042 1.251831 0.000000 0.000000 0.000000 7.125000 0.000000 0.000000 42.883063 26.195930 28.154945
-0.018798 18.164284 -0.062111 1.321874 -2.456423 1.475569 0.000000 0.000000 0.000000 -19.975599 -4.884738 0.436459 0.490032 4.488376 12.454915 0.194353 11.885924 -19.315901 0.781149 -5.642340 -15.750262 0.000000 0.000000 0.000000 18.018622 4.504305 -2.581574 -0.808733 -5.739192 16.029498 0.087376 -13.900934 -18.713392 -0.369314 3.903560 -10.805412 -1.638226 1.291605 3.338243 -0.972882 1.674123 2.051115 -0.130649 0.827780 0.214602 -7.994138 -10.728494 1.088408 5.878587 -14.297163 -6.293959 3.303559 -7.103843 -1.145888 0.000000 0.000000 0.000000 13.110347 15.458874 -47.081743 82.709129 -59.798172 53.690191 -13.928164 -7.546100 -35.367737 0.000000 0.000000 0.000000 -7.125000 0.000000 0.000000 -51.651545 57.672889 19.371959 0.000000 0.000000 0.000000 -10.917171 15.826144 47.068164 -84.790018 -59.897168 -55.489570 36.976433 11.242382 1.087486 0.000000 0.000000 0.000000 7.125000 0.000000 0.000000 42.858443 25.995723 28.453934
-0.037186 18.167869 -0.032983 1.346334 -2.394794 1.553299 0.000000 0.000000 0.000000 -19.961986 -5.122169 0.800909 0.456207 4.332926 12.015337 0.197058 12.046393 -19.543692 0.735915 -5.480101 -15.283209 0.000000 0.000000 0.000000 18.103940 4.696515 -2.433099 -0.801975 -5.715695 15.961617 0.104296 -14.138799 -18.862620 -0.349622 3.798838 -10.511510 -1.608830 1.182259 2.978676 -0.920198 1.536552 1.954198 -0.081875 0.758859 0.316669 -7.737028 -10.660720 2.595442 5.947153 -14.296934 -7.271924 3.447974 -7.112829 -1.744149 0.000000 0.000000 0.000000 12.771551 15.317020 -46.698835 83.770839 -59.852844 54.608003 -15.716923 -7.318001 -35.652573 0.000000 0.000000 0.000000 -7.125000 0.000000 0.000000 -53.505139 57.462208 20.076054 0.000000 0.000000 0.000000 -10.780893 15.605353 47.452143 -85.781806 -59.932631 -56.347728 36.906035 11.666586 0.865051 0.000000 0.000000 0.000000 7.125000 0.000000 0.000000 42.746078 25.815110 28.596352
-0.063550 18.160018 -0.012666 1.483823 -2.454247 1.259767 0.000000 0.000000 0.000000 -20.047879 -4.798546 1.240745 0.441056 4.261492 11.813628 0.201463 11.935925 -19.457551 0.720160 -5.421942 -15.116255 0.000000 0.000000 0.000000 18.051170 4.506386 -2.213800 -0.824573 -5.793773 16.187188 0.056898 -13.918076 -19.109965 -0.342993 3.763216 -10.411521 -1.645610 1.200227 2.881993 -0.874456 1.565275 2.143824 -0.010499 0.770335 0.562612 -7.530054 -10.889294 3.393461 6.019651 -14.644713 -7.423808 3.504442 -7.299414 -1.920659 0.000000 0.000000 0.000000 12.553803 14.772849 -46.632453 84.660303 -59.891989 55.377355 -16.393424 -6.715343 -35.228995 0.000000 0.000000 0.000000 -7.125000 0.000000 0.000000 -53.600863 57.030494 19.532257 0.000000 0.000000 0.000000 -10.589209 15.300406 47.321712 -86.426649 -59.951729 -56.905877 36.704800 11.511423 0.946421 0.000000 0.000000 0.000000 7.125000 0.000000 0.000000 42.717158 25.959507 28.317777
